<svg xmlns="http://www.w3.org/2000/svg" width="1500" height="1120" viewBox="0 0 1500 1120">
<rect width="100%" height="100%" fill="#fafafa"/>
<text x="34.0" y="38.0" font-size="28" font-weight="bold" text-anchor="start" fill="#222" font-family="Segoe UI, Arial, sans-serif">OpenGait Tuning Analysis</text>
<text x="34.0" y="64.0" font-size="14" font-weight="normal" text-anchor="start" fill="#555" font-family="Segoe UI, Arial, sans-serif">Top-k summary + fixed-parameter slice + pairwise interactions</text>
<rect x="60" y="100" width="1380" height="280" rx="10" fill="#ffffff" stroke="#d8d8d8"/>
<text x="74.0" y="124.0" font-size="18" font-weight="bold" text-anchor="start" fill="#222" font-family="Segoe UI, Arial, sans-serif">Top-10 Metrics</text>
<line x1="110" y1="344.0" x2="1420" y2="344.0" stroke="#efefef"/>
<text x="102.0" y="348.0" font-size="11" font-weight="normal" text-anchor="end" fill="#666" font-family="Segoe UI, Arial, sans-serif">57.64</text>
<line x1="110" y1="300.5" x2="1420" y2="300.5" stroke="#efefef"/>
<text x="102.0" y="304.5" font-size="11" font-weight="normal" text-anchor="end" fill="#666" font-family="Segoe UI, Arial, sans-serif">57.77</text>
<line x1="110" y1="257.0" x2="1420" y2="257.0" stroke="#efefef"/>
<text x="102.0" y="261.0" font-size="11" font-weight="normal" text-anchor="end" fill="#666" font-family="Segoe UI, Arial, sans-serif">57.89</text>
<line x1="110" y1="213.5" x2="1420" y2="213.5" stroke="#efefef"/>
<text x="102.0" y="217.5" font-size="11" font-weight="normal" text-anchor="end" fill="#666" font-family="Segoe UI, Arial, sans-serif">58.01</text>
<line x1="110" y1="170.0" x2="1420" y2="170.0" stroke="#efefef"/>
<text x="102.0" y="174.0" font-size="11" font-weight="normal" text-anchor="end" fill="#666" font-family="Segoe UI, Arial, sans-serif">58.14</text>
<rect x="132.9" y="187.6" width="85.2" height="156.4" fill="#d7263d" opacity="0.9" rx="4"/>
<text x="175.5" y="362.0" font-size="11" font-weight="normal" text-anchor="middle" fill="#666" font-family="Segoe UI, Arial, sans-serif">32</text>
<rect x="263.9" y="208.8" width="85.2" height="135.2" fill="#2878ff" opacity="0.9" rx="4"/>
<text x="306.5" y="362.0" font-size="11" font-weight="normal" text-anchor="middle" fill="#666" font-family="Segoe UI, Arial, sans-serif">36</text>
<rect x="394.9" y="226.4" width="85.2" height="117.6" fill="#2878ff" opacity="0.9" rx="4"/>
<text x="437.5" y="362.0" font-size="11" font-weight="normal" text-anchor="middle" fill="#666" font-family="Segoe UI, Arial, sans-serif">40</text>
<rect x="525.9" y="230.0" width="85.2" height="114.0" fill="#2878ff" opacity="0.9" rx="4"/>
<text x="568.5" y="362.0" font-size="11" font-weight="normal" text-anchor="middle" fill="#666" font-family="Segoe UI, Arial, sans-serif">34</text>
<rect x="656.9" y="247.6" width="85.2" height="96.4" fill="#2878ff" opacity="0.9" rx="4"/>
<text x="699.5" y="362.0" font-size="11" font-weight="normal" text-anchor="middle" fill="#666" font-family="Segoe UI, Arial, sans-serif">21</text>
<rect x="787.9" y="266.4" width="85.2" height="77.6" fill="#2878ff" opacity="0.9" rx="4"/>
<text x="830.5" y="362.0" font-size="11" font-weight="normal" text-anchor="middle" fill="#666" font-family="Segoe UI, Arial, sans-serif">12</text>
<rect x="918.9" y="294.6" width="85.2" height="49.4" fill="#2878ff" opacity="0.9" rx="4"/>
<text x="961.5" y="362.0" font-size="11" font-weight="normal" text-anchor="middle" fill="#666" font-family="Segoe UI, Arial, sans-serif">20</text>
<rect x="1049.9" y="314.6" width="85.2" height="29.4" fill="#2878ff" opacity="0.9" rx="4"/>
<text x="1092.5" y="362.0" font-size="11" font-weight="normal" text-anchor="middle" fill="#666" font-family="Segoe UI, Arial, sans-serif">6</text>
<rect x="1180.9" y="317.0" width="85.2" height="27.0" fill="#2878ff" opacity="0.9" rx="4"/>
<text x="1223.5" y="362.0" font-size="11" font-weight="normal" text-anchor="middle" fill="#666" font-family="Segoe UI, Arial, sans-serif">37</text>
<rect x="1311.9" y="326.4" width="85.2" height="17.6" fill="#2878ff" opacity="0.9" rx="4"/>
<text x="1354.5" y="362.0" font-size="11" font-weight="normal" text-anchor="middle" fill="#666" font-family="Segoe UI, Arial, sans-serif">11</text>
<rect x="60" y="420" width="680" height="300" rx="10" fill="#ffffff" stroke="#d8d8d8"/>
<text x="74.0" y="444.0" font-size="18" font-weight="bold" text-anchor="start" fill="#222" font-family="Segoe UI, Arial, sans-serif">Single-Parameter Slice</text>
<text x="74.0" y="466.0" font-size="12" font-weight="normal" text-anchor="start" fill="#666" font-family="Segoe UI, Arial, sans-serif">fixed edge_sobel_thr_ratio=0.15, edge_sobel_thr_abs=0.01 (n=5)</text>
<line x1="115" y1="682.0" x2="716" y2="682.0" stroke="#efefef"/>
<text x="107.0" y="686.0" font-size="11" font-weight="normal" text-anchor="end" fill="#666" font-family="Segoe UI, Arial, sans-serif">56.12</text>
<line x1="115" y1="618.0" x2="716" y2="618.0" stroke="#efefef"/>
<text x="107.0" y="622.0" font-size="11" font-weight="normal" text-anchor="end" fill="#666" font-family="Segoe UI, Arial, sans-serif">56.79</text>
<line x1="115" y1="554.0" x2="716" y2="554.0" stroke="#efefef"/>
<text x="107.0" y="558.0" font-size="11" font-weight="normal" text-anchor="end" fill="#666" font-family="Segoe UI, Arial, sans-serif">57.47</text>
<line x1="115" y1="490.0" x2="716" y2="490.0" stroke="#efefef"/>
<text x="107.0" y="494.0" font-size="11" font-weight="normal" text-anchor="end" fill="#666" font-family="Segoe UI, Arial, sans-serif">58.14</text>
<polyline points="115.0,605.1 716.0,526.6" fill="none" stroke="#d7263d" stroke-width="3"/>
<circle cx="115.0" cy="605.1" r="6" fill="#d7263d"/>
<text x="115.0" y="593.1" font-size="10" font-weight="normal" text-anchor="middle" fill="#444" font-family="Segoe UI, Arial, sans-serif">mean=56.930 (n=3)</text>
<circle cx="105.0" cy="494.8" r="3.5" fill="#2878ff" opacity="0.85"/>
<circle cx="115.0" cy="643.2" r="3.5" fill="#2878ff" opacity="0.85"/>
<circle cx="125.0" cy="677.2" r="3.5" fill="#2878ff" opacity="0.85"/>
<circle cx="716.0" cy="526.6" r="6" fill="#d7263d"/>
<text x="716.0" y="514.6" font-size="10" font-weight="normal" text-anchor="middle" fill="#444" font-family="Segoe UI, Arial, sans-serif">mean=57.753 (n=2)</text>
<circle cx="706.0" cy="516.1" r="3.5" fill="#2878ff" opacity="0.85"/>
<circle cx="716.0" cy="537.0" r="3.5" fill="#2878ff" opacity="0.85"/>
<text x="415.5" y="710.0" font-size="12" font-weight="normal" text-anchor="middle" fill="#666" font-family="Segoe UI, Arial, sans-serif">mask_ratio</text>
<rect x="760" y="420" width="680" height="300" rx="10" fill="#ffffff" stroke="#d8d8d8"/>
<text x="774.0" y="444.0" font-size="18" font-weight="bold" text-anchor="start" fill="#222" font-family="Segoe UI, Arial, sans-serif">Interaction: mask_ratio × lambda</text>
<text x="774.0" y="466.0" font-size="12" font-weight="normal" text-anchor="start" fill="#666" font-family="Segoe UI, Arial, sans-serif">color = metric</text>
<line x1="820.0" y1="490" x2="820.0" y2="674" stroke="#f3f3f3"/>
<line x1="820" y1="490.0" x2="1416" y2="490.0" stroke="#f3f3f3"/>
<text x="820.0" y="692.0" font-size="11" font-weight="normal" text-anchor="middle" fill="#666" font-family="Segoe UI, Arial, sans-serif">0.2</text>
<text x="812.0" y="494.0" font-size="11" font-weight="normal" text-anchor="end" fill="#666" font-family="Segoe UI, Arial, sans-serif">20</text>
<line x1="969.0" y1="490" x2="969.0" y2="674" stroke="#f3f3f3"/>
<line x1="820" y1="536.0" x2="1416" y2="536.0" stroke="#f3f3f3"/>
<text x="969.0" y="692.0" font-size="11" font-weight="normal" text-anchor="middle" fill="#666" font-family="Segoe UI, Arial, sans-serif">0.3</text>
<text x="812.0" y="540.0" font-size="11" font-weight="normal" text-anchor="end" fill="#666" font-family="Segoe UI, Arial, sans-serif">15.25</text>
<line x1="1118.0" y1="490" x2="1118.0" y2="674" stroke="#f3f3f3"/>
<line x1="820" y1="582.0" x2="1416" y2="582.0" stroke="#f3f3f3"/>
<text x="1118.0" y="692.0" font-size="11" font-weight="normal" text-anchor="middle" fill="#666" font-family="Segoe UI, Arial, sans-serif">0.4</text>
<text x="812.0" y="586.0" font-size="11" font-weight="normal" text-anchor="end" fill="#666" font-family="Segoe UI, Arial, sans-serif">10.5</text>
<line x1="1267.0" y1="490" x2="1267.0" y2="674" stroke="#f3f3f3"/>
<line x1="820" y1="628.0" x2="1416" y2="628.0" stroke="#f3f3f3"/>
<text x="1267.0" y="692.0" font-size="11" font-weight="normal" text-anchor="middle" fill="#666" font-family="Segoe UI, Arial, sans-serif">0.5</text>
<text x="812.0" y="632.0" font-size="11" font-weight="normal" text-anchor="end" fill="#666" font-family="Segoe UI, Arial, sans-serif">5.75</text>
<line x1="1416.0" y1="490" x2="1416.0" y2="674" stroke="#f3f3f3"/>
<line x1="820" y1="674.0" x2="1416" y2="674.0" stroke="#f3f3f3"/>
<text x="1416.0" y="692.0" font-size="11" font-weight="normal" text-anchor="middle" fill="#666" font-family="Segoe UI, Arial, sans-serif">0.6</text>
<text x="812.0" y="678.0" font-size="11" font-weight="normal" text-anchor="end" fill="#666" font-family="Segoe UI, Arial, sans-serif">1</text>
<circle cx="969.0" cy="615.9" r="5.5" fill="#d760e4" opacity="0.88"/>
<circle cx="969.0" cy="659.5" r="5.5" fill="#d165de" opacity="0.88"/>
<circle cx="1267.0" cy="577.2" r="5.5" fill="#cd69da" opacity="0.88"/>
<circle cx="820.0" cy="635.3" r="5.5" fill="#cc6ad9" opacity="0.88"/>
<circle cx="820.0" cy="543.3" r="5.5" fill="#c76ed5" opacity="0.88"/>
<circle cx="1118.0" cy="644.9" r="5.5" fill="#c373d0" opacity="0.88"/>
<circle cx="1118.0" cy="490.0" r="5.5" fill="#bc7ac9" opacity="0.88"/>
<circle cx="969.0" cy="659.5" r="5.5" fill="#b77fc5" opacity="0.88"/>
<circle cx="1267.0" cy="552.9" r="5.5" fill="#b680c4" opacity="0.88"/>
<circle cx="969.0" cy="640.1" r="5.5" fill="#b482c2" opacity="0.88"/>
<circle cx="969.0" cy="582.0" r="5.5" fill="#b086be" opacity="0.88"/>
<circle cx="1118.0" cy="504.5" r="5.5" fill="#af86bd" opacity="0.88"/>
<circle cx="1118.0" cy="577.2" r="5.5" fill="#ad89bb" opacity="0.88"/>
<circle cx="969.0" cy="674.0" r="5.5" fill="#a88eb6" opacity="0.88"/>
<circle cx="1267.0" cy="548.1" r="5.5" fill="#a096ae" opacity="0.88"/>
<circle cx="969.0" cy="499.7" r="5.5" fill="#979fa6" opacity="0.88"/>
<circle cx="1267.0" cy="543.3" r="5.5" fill="#95a1a3" opacity="0.88"/>
<circle cx="1118.0" cy="625.6" r="5.5" fill="#94a1a3" opacity="0.88"/>
<circle cx="1267.0" cy="635.3" r="5.5" fill="#90a69f" opacity="0.88"/>
<circle cx="1267.0" cy="620.7" r="5.5" fill="#8ea89d" opacity="0.88"/>
<circle cx="969.0" cy="669.2" r="5.5" fill="#8da89c" opacity="0.88"/>
<circle cx="969.0" cy="490.0" r="5.5" fill="#8da99c" opacity="0.88"/>
<circle cx="1118.0" cy="664.3" r="5.5" fill="#8ca99c" opacity="0.88"/>
<circle cx="969.0" cy="659.5" r="5.5" fill="#84b194" opacity="0.88"/>
<circle cx="1267.0" cy="669.2" r="5.5" fill="#79aa88" opacity="0.88"/>
<circle cx="820.0" cy="557.8" r="5.5" fill="#78a987" opacity="0.88"/>
<circle cx="1267.0" cy="509.4" r="5.5" fill="#76a886" opacity="0.88"/>
<circle cx="1416.0" cy="630.4" r="5.5" fill="#74a584" opacity="0.88"/>
<circle cx="1416.0" cy="557.8" r="5.5" fill="#73a483" opacity="0.88"/>
<circle cx="820.0" cy="562.6" r="5.5" fill="#72a482" opacity="0.88"/>
<circle cx="1267.0" cy="659.5" r="5.5" fill="#72a482" opacity="0.88"/>
<circle cx="1267.0" cy="577.2" r="5.5" fill="#6b9d7b" opacity="0.88"/>
<circle cx="1118.0" cy="635.3" r="5.5" fill="#669877" opacity="0.88"/>
<circle cx="1267.0" cy="674.0" r="5.5" fill="#609271" opacity="0.88"/>
<circle cx="1118.0" cy="630.4" r="5.5" fill="#5d8f6e" opacity="0.88"/>
<circle cx="969.0" cy="577.2" r="5.5" fill="#4d7f5e" opacity="0.88"/>
<circle cx="1416.0" cy="572.3" r="5.5" fill="#4a7c5b" opacity="0.88"/>
<circle cx="1416.0" cy="557.8" r="5.5" fill="#3c6e4d" opacity="0.88"/>
<circle cx="1118.0" cy="523.9" r="5.5" fill="#316343" opacity="0.88"/>
<circle cx="969.0" cy="514.2" r="5.5" fill="#2e6040" opacity="0.88"/>
<circle cx="969.0" cy="615.9" r="8" fill="none" stroke="#d7263d" stroke-width="2"/>
<text x="1118.0" y="708.0" font-size="12" font-weight="normal" text-anchor="middle" fill="#666" font-family="Segoe UI, Arial, sans-serif">mask_ratio</text>
<text x="778.0" y="582.0" font-size="12" font-weight="normal" text-anchor="start" fill="#666" font-family="Segoe UI, Arial, sans-serif">lambda</text>
<rect x="410" y="760" width="680" height="300" rx="10" fill="#ffffff" stroke="#d8d8d8"/>
<text x="424.0" y="784.0" font-size="18" font-weight="bold" text-anchor="start" fill="#222" font-family="Segoe UI, Arial, sans-serif">Interaction: lambda × lambda_edge</text>
<text x="424.0" y="806.0" font-size="12" font-weight="normal" text-anchor="start" fill="#666" font-family="Segoe UI, Arial, sans-serif">color = metric</text>
<line x1="470.0" y1="830" x2="470.0" y2="1014" stroke="#f3f3f3"/>
<line x1="470" y1="830.0" x2="1066" y2="830.0" stroke="#f3f3f3"/>
<text x="470.0" y="1032.0" font-size="11" font-weight="normal" text-anchor="middle" fill="#666" font-family="Segoe UI, Arial, sans-serif">1</text>
<text x="462.0" y="834.0" font-size="11" font-weight="normal" text-anchor="end" fill="#666" font-family="Segoe UI, Arial, sans-serif">10</text>
<line x1="619.0" y1="830" x2="619.0" y2="1014" stroke="#f3f3f3"/>
<line x1="470" y1="876.0" x2="1066" y2="876.0" stroke="#f3f3f3"/>
<text x="619.0" y="1032.0" font-size="11" font-weight="normal" text-anchor="middle" fill="#666" font-family="Segoe UI, Arial, sans-serif">5.75</text>
<text x="462.0" y="880.0" font-size="11" font-weight="normal" text-anchor="end" fill="#666" font-family="Segoe UI, Arial, sans-serif">7.75</text>
<line x1="768.0" y1="830" x2="768.0" y2="1014" stroke="#f3f3f3"/>
<line x1="470" y1="922.0" x2="1066" y2="922.0" stroke="#f3f3f3"/>
<text x="768.0" y="1032.0" font-size="11" font-weight="normal" text-anchor="middle" fill="#666" font-family="Segoe UI, Arial, sans-serif">10.5</text>
<text x="462.0" y="926.0" font-size="11" font-weight="normal" text-anchor="end" fill="#666" font-family="Segoe UI, Arial, sans-serif">5.5</text>
<line x1="917.0" y1="830" x2="917.0" y2="1014" stroke="#f3f3f3"/>
<line x1="470" y1="968.0" x2="1066" y2="968.0" stroke="#f3f3f3"/>
<text x="917.0" y="1032.0" font-size="11" font-weight="normal" text-anchor="middle" fill="#666" font-family="Segoe UI, Arial, sans-serif">15.25</text>
<text x="462.0" y="972.0" font-size="11" font-weight="normal" text-anchor="end" fill="#666" font-family="Segoe UI, Arial, sans-serif">3.25</text>
<line x1="1066.0" y1="830" x2="1066.0" y2="1014" stroke="#f3f3f3"/>
<line x1="470" y1="1014.0" x2="1066" y2="1014.0" stroke="#f3f3f3"/>
<text x="1066.0" y="1032.0" font-size="11" font-weight="normal" text-anchor="middle" fill="#666" font-family="Segoe UI, Arial, sans-serif">20</text>
<text x="462.0" y="1018.0" font-size="11" font-weight="normal" text-anchor="end" fill="#666" font-family="Segoe UI, Arial, sans-serif">1</text>
<circle cx="658.2" cy="911.8" r="5.5" fill="#d760e4" opacity="0.88"/>
<circle cx="517.1" cy="942.4" r="5.5" fill="#d165de" opacity="0.88"/>
<circle cx="783.7" cy="1014.0" r="5.5" fill="#cd69da" opacity="0.88"/>
<circle cx="595.5" cy="891.3" r="5.5" fill="#cc6ad9" opacity="0.88"/>
<circle cx="893.5" cy="891.3" r="5.5" fill="#c76ed5" opacity="0.88"/>
<circle cx="564.1" cy="881.1" r="5.5" fill="#c373d0" opacity="0.88"/>
<circle cx="1066.0" cy="922.0" r="5.5" fill="#bc7ac9" opacity="0.88"/>
<circle cx="517.1" cy="1003.8" r="5.5" fill="#b77fc5" opacity="0.88"/>
<circle cx="862.1" cy="830.0" r="5.5" fill="#b680c4" opacity="0.88"/>
<circle cx="579.8" cy="973.1" r="5.5" fill="#b482c2" opacity="0.88"/>
<circle cx="768.0" cy="1014.0" r="5.5" fill="#b086be" opacity="0.88"/>
<circle cx="1018.9" cy="932.2" r="5.5" fill="#af86bd" opacity="0.88"/>
<circle cx="783.7" cy="973.1" r="5.5" fill="#ad89bb" opacity="0.88"/>
<circle cx="470.0" cy="840.2" r="5.5" fill="#a88eb6" opacity="0.88"/>
<circle cx="877.8" cy="962.9" r="5.5" fill="#a096ae" opacity="0.88"/>
<circle cx="1034.6" cy="850.4" r="5.5" fill="#979fa6" opacity="0.88"/>
<circle cx="893.5" cy="922.0" r="5.5" fill="#95a1a3" opacity="0.88"/>
<circle cx="626.8" cy="973.1" r="5.5" fill="#94a1a3" opacity="0.88"/>
<circle cx="595.5" cy="1014.0" r="5.5" fill="#90a69f" opacity="0.88"/>
<circle cx="642.5" cy="901.6" r="5.5" fill="#8ea89d" opacity="0.88"/>
<circle cx="485.7" cy="850.4" r="5.5" fill="#8da89c" opacity="0.88"/>
<circle cx="1066.0" cy="922.0" r="5.5" fill="#8da99c" opacity="0.88"/>
<circle cx="501.4" cy="881.1" r="5.5" fill="#8ca99c" opacity="0.88"/>
<circle cx="517.1" cy="973.1" r="5.5" fill="#84b194" opacity="0.88"/>
<circle cx="485.7" cy="983.3" r="5.5" fill="#79aa88" opacity="0.88"/>
<circle cx="846.4" cy="983.3" r="5.5" fill="#78a987" opacity="0.88"/>
<circle cx="1003.3" cy="1003.8" r="5.5" fill="#76a886" opacity="0.88"/>
<circle cx="611.2" cy="922.0" r="5.5" fill="#74a584" opacity="0.88"/>
<circle cx="846.4" cy="942.4" r="5.5" fill="#73a483" opacity="0.88"/>
<circle cx="830.7" cy="870.9" r="5.5" fill="#72a482" opacity="0.88"/>
<circle cx="517.1" cy="942.4" r="5.5" fill="#72a482" opacity="0.88"/>
<circle cx="783.7" cy="870.9" r="5.5" fill="#6b9d7b" opacity="0.88"/>
<circle cx="595.5" cy="911.8" r="5.5" fill="#669877" opacity="0.88"/>
<circle cx="470.0" cy="973.1" r="5.5" fill="#609271" opacity="0.88"/>
<circle cx="611.2" cy="911.8" r="5.5" fill="#5d8f6e" opacity="0.88"/>
<circle cx="783.7" cy="881.1" r="5.5" fill="#4d7f5e" opacity="0.88"/>
<circle cx="799.4" cy="932.2" r="5.5" fill="#4a7c5b" opacity="0.88"/>
<circle cx="846.4" cy="911.8" r="5.5" fill="#3c6e4d" opacity="0.88"/>
<circle cx="956.2" cy="901.6" r="5.5" fill="#316343" opacity="0.88"/>
<circle cx="987.6" cy="973.1" r="5.5" fill="#2e6040" opacity="0.88"/>
<circle cx="658.2" cy="911.8" r="8" fill="none" stroke="#d7263d" stroke-width="2"/>
<text x="768.0" y="1048.0" font-size="12" font-weight="normal" text-anchor="middle" fill="#666" font-family="Segoe UI, Arial, sans-serif">lambda</text>
<text x="428.0" y="922.0" font-size="12" font-weight="normal" text-anchor="start" fill="#666" font-family="Segoe UI, Arial, sans-serif">lambda_edge</text>
</svg>