<svg xmlns="http://www.w3.org/2000/svg" width="1400" height="1040" viewBox="0 0 1400 1040">
<rect width="100%" height="100%" fill="#fafafa"/>
<text x="36.0" y="38.0" font-size="28" font-weight="bold" text-anchor="start" fill="#222" font-family="Segoe UI, Arial, sans-serif">OpenGait Hyper-Parameter Search</text>
<text x="36.0" y="66.0" font-size="14" font-weight="normal" text-anchor="start" fill="#444" font-family="Segoe UI, Arial, sans-serif">best trial=32  score=58.087  mask=0.3  lambda=7.0  lambda_edge=6.0</text>
<rect x="90" y="96" width="1270" height="360" fill="#ffffff" stroke="#d9d9d9" rx="8"/>
<line x1="90" y1="456.0" x2="1360" y2="456.0" stroke="#ececec"/>
<text x="78.0" y="461.0" font-size="12" font-weight="normal" text-anchor="end" fill="#666" font-family="Segoe UI, Arial, sans-serif">55.97</text>
<line x1="90" y1="366.0" x2="1360" y2="366.0" stroke="#ececec"/>
<text x="78.0" y="371.0" font-size="12" font-weight="normal" text-anchor="end" fill="#666" font-family="Segoe UI, Arial, sans-serif">56.55</text>
<line x1="90" y1="276.0" x2="1360" y2="276.0" stroke="#ececec"/>
<text x="78.0" y="281.0" font-size="12" font-weight="normal" text-anchor="end" fill="#666" font-family="Segoe UI, Arial, sans-serif">57.13</text>
<line x1="90" y1="186.0" x2="1360" y2="186.0" stroke="#ececec"/>
<text x="78.0" y="191.0" font-size="12" font-weight="normal" text-anchor="end" fill="#666" font-family="Segoe UI, Arial, sans-serif">57.71</text>
<line x1="90" y1="96.0" x2="1360" y2="96.0" stroke="#ececec"/>
<text x="78.0" y="101.0" font-size="12" font-weight="normal" text-anchor="end" fill="#666" font-family="Segoe UI, Arial, sans-serif">58.29</text>
<line x1="90.0" y1="96" x2="90.0" y2="456" stroke="#f7f7f7"/>
<text x="90.0" y="478.0" font-size="12" font-weight="normal" text-anchor="middle" fill="#666" font-family="Segoe UI, Arial, sans-serif">1</text>
<line x1="122.6" y1="96" x2="122.6" y2="456" stroke="#f7f7f7"/>
<line x1="155.1" y1="96" x2="155.1" y2="456" stroke="#f7f7f7"/>
<line x1="187.7" y1="96" x2="187.7" y2="456" stroke="#f7f7f7"/>
<line x1="220.3" y1="96" x2="220.3" y2="456" stroke="#f7f7f7"/>
<text x="220.3" y="478.0" font-size="12" font-weight="normal" text-anchor="middle" fill="#666" font-family="Segoe UI, Arial, sans-serif">5</text>
<line x1="252.8" y1="96" x2="252.8" y2="456" stroke="#f7f7f7"/>
<line x1="285.4" y1="96" x2="285.4" y2="456" stroke="#f7f7f7"/>
<line x1="317.9" y1="96" x2="317.9" y2="456" stroke="#f7f7f7"/>
<line x1="350.5" y1="96" x2="350.5" y2="456" stroke="#f7f7f7"/>
<text x="350.5" y="478.0" font-size="12" font-weight="normal" text-anchor="middle" fill="#666" font-family="Segoe UI, Arial, sans-serif">9</text>
<line x1="383.1" y1="96" x2="383.1" y2="456" stroke="#f7f7f7"/>
<line x1="415.6" y1="96" x2="415.6" y2="456" stroke="#f7f7f7"/>
<line x1="448.2" y1="96" x2="448.2" y2="456" stroke="#f7f7f7"/>
<line x1="480.8" y1="96" x2="480.8" y2="456" stroke="#f7f7f7"/>
<text x="480.8" y="478.0" font-size="12" font-weight="normal" text-anchor="middle" fill="#666" font-family="Segoe UI, Arial, sans-serif">13</text>
<line x1="513.3" y1="96" x2="513.3" y2="456" stroke="#f7f7f7"/>
<line x1="545.9" y1="96" x2="545.9" y2="456" stroke="#f7f7f7"/>
<line x1="578.5" y1="96" x2="578.5" y2="456" stroke="#f7f7f7"/>
<line x1="611.0" y1="96" x2="611.0" y2="456" stroke="#f7f7f7"/>
<text x="611.0" y="478.0" font-size="12" font-weight="normal" text-anchor="middle" fill="#666" font-family="Segoe UI, Arial, sans-serif">17</text>
<line x1="643.6" y1="96" x2="643.6" y2="456" stroke="#f7f7f7"/>
<line x1="676.2" y1="96" x2="676.2" y2="456" stroke="#f7f7f7"/>
<line x1="708.7" y1="96" x2="708.7" y2="456" stroke="#f7f7f7"/>
<line x1="741.3" y1="96" x2="741.3" y2="456" stroke="#f7f7f7"/>
<text x="741.3" y="478.0" font-size="12" font-weight="normal" text-anchor="middle" fill="#666" font-family="Segoe UI, Arial, sans-serif">21</text>
<line x1="773.8" y1="96" x2="773.8" y2="456" stroke="#f7f7f7"/>
<line x1="806.4" y1="96" x2="806.4" y2="456" stroke="#f7f7f7"/>
<line x1="839.0" y1="96" x2="839.0" y2="456" stroke="#f7f7f7"/>
<line x1="871.5" y1="96" x2="871.5" y2="456" stroke="#f7f7f7"/>
<text x="871.5" y="478.0" font-size="12" font-weight="normal" text-anchor="middle" fill="#666" font-family="Segoe UI, Arial, sans-serif">25</text>
<line x1="904.1" y1="96" x2="904.1" y2="456" stroke="#f7f7f7"/>
<line x1="936.7" y1="96" x2="936.7" y2="456" stroke="#f7f7f7"/>
<line x1="969.2" y1="96" x2="969.2" y2="456" stroke="#f7f7f7"/>
<line x1="1001.8" y1="96" x2="1001.8" y2="456" stroke="#f7f7f7"/>
<text x="1001.8" y="478.0" font-size="12" font-weight="normal" text-anchor="middle" fill="#666" font-family="Segoe UI, Arial, sans-serif">29</text>
<line x1="1034.4" y1="96" x2="1034.4" y2="456" stroke="#f7f7f7"/>
<line x1="1066.9" y1="96" x2="1066.9" y2="456" stroke="#f7f7f7"/>
<line x1="1099.5" y1="96" x2="1099.5" y2="456" stroke="#f7f7f7"/>
<line x1="1132.1" y1="96" x2="1132.1" y2="456" stroke="#f7f7f7"/>
<text x="1132.1" y="478.0" font-size="12" font-weight="normal" text-anchor="middle" fill="#666" font-family="Segoe UI, Arial, sans-serif">33</text>
<line x1="1164.6" y1="96" x2="1164.6" y2="456" stroke="#f7f7f7"/>
<line x1="1197.2" y1="96" x2="1197.2" y2="456" stroke="#f7f7f7"/>
<line x1="1229.7" y1="96" x2="1229.7" y2="456" stroke="#f7f7f7"/>
<line x1="1262.3" y1="96" x2="1262.3" y2="456" stroke="#f7f7f7"/>
<text x="1262.3" y="478.0" font-size="12" font-weight="normal" text-anchor="middle" fill="#666" font-family="Segoe UI, Arial, sans-serif">37</text>
<line x1="1294.9" y1="96" x2="1294.9" y2="456" stroke="#f7f7f7"/>
<line x1="1327.4" y1="96" x2="1327.4" y2="456" stroke="#f7f7f7"/>
<text x="1360.0" y="478.0" font-size="12" font-weight="normal" text-anchor="middle" fill="#666" font-family="Segoe UI, Arial, sans-serif">40</text>
<polyline points="90.0,335.1 122.6,296.7 155.1,195.6 187.7,324.8 220.3,223.6 252.8,183.1 285.4,243.3 317.9,418.7 350.5,292.6 383.1,271.9 415.6,188.3 448.2,161.9 480.8,400.0 513.3,252.1 545.9,239.2 578.5,196.1 611.0,340.8 643.6,257.3 676.2,303.5 708.7,174.3 741.3,153.6 773.8,304.0 806.4,300.9 839.0,255.3 871.5,316.5 904.1,209.1 936.7,256.3 969.2,257.8 1001.8,200.3 1034.4,369.4 1066.9,303.0 1099.5,127.1 1132.1,294.2 1164.6,145.8 1197.2,374.0 1229.7,136.5 1262.3,184.2 1294.9,424.9 1327.4,243.8 1360.0,144.2" fill="none" stroke="#2878ff" stroke-width="3" stroke-linejoin="round" stroke-linecap="round"/>
<line x1="90" y1="257.5" x2="1360" y2="257.5" stroke="#ff9f1c" stroke-width="2" stroke-dasharray="6 6"/>
<text x="1356.0" y="249.5" font-size="12" font-weight="normal" text-anchor="end" fill="#c46b00" font-family="Segoe UI, Arial, sans-serif">avg 57.249</text>
<circle cx="90.0" cy="335.1" r="4" fill="#2878ff" opacity="0.95"/>
<circle cx="122.6" cy="296.7" r="4" fill="#2878ff" opacity="0.95"/>
<circle cx="155.1" cy="195.6" r="4" fill="#2878ff" opacity="0.95"/>
<circle cx="187.7" cy="324.8" r="4" fill="#2878ff" opacity="0.95"/>
<circle cx="220.3" cy="223.6" r="4" fill="#2878ff" opacity="0.95"/>
<circle cx="252.8" cy="183.1" r="4" fill="#2878ff" opacity="0.95"/>
<circle cx="285.4" cy="243.3" r="4" fill="#2878ff" opacity="0.95"/>
<circle cx="317.9" cy="418.7" r="4" fill="#2878ff" opacity="0.95"/>
<circle cx="350.5" cy="292.6" r="4" fill="#2878ff" opacity="0.95"/>
<circle cx="383.1" cy="271.9" r="4" fill="#2878ff" opacity="0.95"/>
<circle cx="415.6" cy="188.3" r="4" fill="#2878ff" opacity="0.95"/>
<circle cx="448.2" cy="161.9" r="4" fill="#2878ff" opacity="0.95"/>
<circle cx="480.8" cy="400.0" r="4" fill="#2878ff" opacity="0.95"/>
<circle cx="513.3" cy="252.1" r="4" fill="#2878ff" opacity="0.95"/>
<circle cx="545.9" cy="239.2" r="4" fill="#2878ff" opacity="0.95"/>
<circle cx="578.5" cy="196.1" r="4" fill="#2878ff" opacity="0.95"/>
<circle cx="611.0" cy="340.8" r="4" fill="#2878ff" opacity="0.95"/>
<circle cx="643.6" cy="257.3" r="4" fill="#2878ff" opacity="0.95"/>
<circle cx="676.2" cy="303.5" r="4" fill="#2878ff" opacity="0.95"/>
<circle cx="708.7" cy="174.3" r="4" fill="#2878ff" opacity="0.95"/>
<circle cx="741.3" cy="153.6" r="4" fill="#2878ff" opacity="0.95"/>
<circle cx="773.8" cy="304.0" r="4" fill="#2878ff" opacity="0.95"/>
<circle cx="806.4" cy="300.9" r="4" fill="#2878ff" opacity="0.95"/>
<circle cx="839.0" cy="255.3" r="4" fill="#2878ff" opacity="0.95"/>
<circle cx="871.5" cy="316.5" r="4" fill="#2878ff" opacity="0.95"/>
<circle cx="904.1" cy="209.1" r="4" fill="#2878ff" opacity="0.95"/>
<circle cx="936.7" cy="256.3" r="4" fill="#2878ff" opacity="0.95"/>
<circle cx="969.2" cy="257.8" r="4" fill="#2878ff" opacity="0.95"/>
<circle cx="1001.8" cy="200.3" r="4" fill="#2878ff" opacity="0.95"/>
<circle cx="1034.4" cy="369.4" r="4" fill="#2878ff" opacity="0.95"/>
<circle cx="1066.9" cy="303.0" r="4" fill="#2878ff" opacity="0.95"/>
<circle cx="1099.5" cy="127.1" r="6" fill="#d7263d" opacity="0.95"/>
<circle cx="1132.1" cy="294.2" r="4" fill="#2878ff" opacity="0.95"/>
<circle cx="1164.6" cy="145.8" r="4" fill="#2878ff" opacity="0.95"/>
<circle cx="1197.2" cy="374.0" r="4" fill="#2878ff" opacity="0.95"/>
<circle cx="1229.7" cy="136.5" r="4" fill="#2878ff" opacity="0.95"/>
<circle cx="1262.3" cy="184.2" r="4" fill="#2878ff" opacity="0.95"/>
<circle cx="1294.9" cy="424.9" r="4" fill="#2878ff" opacity="0.95"/>
<circle cx="1327.4" cy="243.8" r="4" fill="#2878ff" opacity="0.95"/>
<circle cx="1360.0" cy="144.2" r="4" fill="#2878ff" opacity="0.95"/>
<line x1="1099.5" y1="127.1" x2="1169.5" y2="91.1" stroke="#d7263d" stroke-width="1.5"/>
<text x="1175.5" y="87.1" font-size="13" font-weight="bold" text-anchor="start" fill="#d7263d" font-family="Segoe UI, Arial, sans-serif">best trial 32: 58.087</text>
<text x="90.0" y="78.0" font-size="18" font-weight="bold" text-anchor="start" fill="#222" font-family="Segoe UI, Arial, sans-serif">Metric By Trial</text>
<rect x="70" y="520" width="420" height="210" fill="#ffffff" stroke="#d9d9d9" rx="8"/>
<text x="82.0" y="542.0" font-size="14" font-weight="bold" text-anchor="start" fill="#222" font-family="Segoe UI, Arial, sans-serif">mask_ratio</text>
<line x1="110" y1="710.0" x2="476" y2="710.0" stroke="#f1f1f1"/>
<line x1="110" y1="658.0" x2="476" y2="658.0" stroke="#f1f1f1"/>
<line x1="110" y1="606.0" x2="476" y2="606.0" stroke="#f1f1f1"/>
<line x1="110" y1="554.0" x2="476" y2="554.0" stroke="#f1f1f1"/>
<circle cx="383.0" cy="658.3" r="4.5" fill="#2878ff" opacity="0.82"/>
<circle cx="383.0" cy="641.9" r="4.5" fill="#2878ff" opacity="0.82"/>
<circle cx="205.0" cy="598.6" r="4.5" fill="#2878ff" opacity="0.82"/>
<circle cx="294.0" cy="653.9" r="4.5" fill="#2878ff" opacity="0.82"/>
<circle cx="383.0" cy="610.6" r="4.5" fill="#2878ff" opacity="0.82"/>
<circle cx="205.0" cy="593.3" r="4.5" fill="#2878ff" opacity="0.82"/>
<circle cx="383.0" cy="619.0" r="4.5" fill="#2878ff" opacity="0.82"/>
<circle cx="294.0" cy="694.0" r="4.5" fill="#2878ff" opacity="0.82"/>
<circle cx="383.0" cy="640.1" r="4.5" fill="#2878ff" opacity="0.82"/>
<circle cx="205.0" cy="631.2" r="4.5" fill="#2878ff" opacity="0.82"/>
<circle cx="205.0" cy="595.5" r="4.5" fill="#2878ff" opacity="0.82"/>
<circle cx="294.0" cy="584.2" r="4.5" fill="#2878ff" opacity="0.82"/>
<circle cx="472.0" cy="686.0" r="4.5" fill="#2878ff" opacity="0.82"/>
<circle cx="383.0" cy="622.8" r="4.5" fill="#2878ff" opacity="0.82"/>
<circle cx="205.0" cy="617.2" r="4.5" fill="#2878ff" opacity="0.82"/>
<circle cx="294.0" cy="598.8" r="4.5" fill="#2878ff" opacity="0.82"/>
<circle cx="294.0" cy="660.7" r="4.5" fill="#2878ff" opacity="0.82"/>
<circle cx="205.0" cy="625.0" r="4.5" fill="#2878ff" opacity="0.82"/>
<circle cx="116.0" cy="644.8" r="4.5" fill="#2878ff" opacity="0.82"/>
<circle cx="294.0" cy="589.5" r="4.5" fill="#2878ff" opacity="0.82"/>
<circle cx="116.0" cy="580.6" r="4.5" fill="#2878ff" opacity="0.82"/>
<circle cx="383.0" cy="645.0" r="4.5" fill="#2878ff" opacity="0.82"/>
<circle cx="472.0" cy="643.7" r="4.5" fill="#2878ff" opacity="0.82"/>
<circle cx="383.0" cy="624.1" r="4.5" fill="#2878ff" opacity="0.82"/>
<circle cx="383.0" cy="650.3" r="4.5" fill="#2878ff" opacity="0.82"/>
<circle cx="205.0" cy="604.4" r="4.5" fill="#2878ff" opacity="0.82"/>
<circle cx="205.0" cy="624.6" r="4.5" fill="#2878ff" opacity="0.82"/>
<circle cx="294.0" cy="625.2" r="4.5" fill="#2878ff" opacity="0.82"/>
<circle cx="294.0" cy="600.6" r="4.5" fill="#2878ff" opacity="0.82"/>
<circle cx="205.0" cy="672.9" r="4.5" fill="#2878ff" opacity="0.82"/>
<circle cx="472.0" cy="644.5" r="4.5" fill="#2878ff" opacity="0.82"/>
<circle cx="205.0" cy="569.3" r="4.5" fill="#2878ff" opacity="0.82"/>
<circle cx="116.0" cy="640.8" r="4.5" fill="#2878ff" opacity="0.82"/>
<circle cx="116.0" cy="577.3" r="4.5" fill="#2878ff" opacity="0.82"/>
<circle cx="472.0" cy="674.9" r="4.5" fill="#2878ff" opacity="0.82"/>
<circle cx="205.0" cy="573.3" r="4.5" fill="#2878ff" opacity="0.82"/>
<circle cx="383.0" cy="593.7" r="4.5" fill="#2878ff" opacity="0.82"/>
<circle cx="205.0" cy="696.7" r="4.5" fill="#2878ff" opacity="0.82"/>
<circle cx="294.0" cy="619.2" r="4.5" fill="#2878ff" opacity="0.82"/>
<circle cx="383.0" cy="576.6" r="4.5" fill="#2878ff" opacity="0.82"/>
<text x="116.0" y="748.0" font-size="11" font-weight="normal" text-anchor="start" fill="#666" font-family="Segoe UI, Arial, sans-serif">min 0.2</text>
<text x="472.0" y="748.0" font-size="11" font-weight="normal" text-anchor="end" fill="#666" font-family="Segoe UI, Arial, sans-serif">max 0.6</text>
<rect x="518" y="520" width="420" height="210" fill="#ffffff" stroke="#d9d9d9" rx="8"/>
<text x="530.0" y="542.0" font-size="14" font-weight="bold" text-anchor="start" fill="#222" font-family="Segoe UI, Arial, sans-serif">lambda</text>
<line x1="558" y1="710.0" x2="924" y2="710.0" stroke="#f1f1f1"/>
<line x1="558" y1="658.0" x2="924" y2="658.0" stroke="#f1f1f1"/>
<line x1="558" y1="606.0" x2="924" y2="606.0" stroke="#f1f1f1"/>
<line x1="558" y1="554.0" x2="924" y2="554.0" stroke="#f1f1f1"/>
<circle cx="564.0" cy="658.3" r="4.5" fill="#00a896" opacity="0.82"/>
<circle cx="882.5" cy="641.9" r="4.5" fill="#00a896" opacity="0.82"/>
<circle cx="742.0" cy="598.6" r="4.5" fill="#00a896" opacity="0.82"/>
<circle cx="638.9" cy="653.9" r="4.5" fill="#00a896" opacity="0.82"/>
<circle cx="807.6" cy="610.6" r="4.5" fill="#00a896" opacity="0.82"/>
<circle cx="592.1" cy="593.3" r="4.5" fill="#00a896" opacity="0.82"/>
<circle cx="816.9" cy="619.0" r="4.5" fill="#00a896" opacity="0.82"/>
<circle cx="854.4" cy="694.0" r="4.5" fill="#00a896" opacity="0.82"/>
<circle cx="573.4" cy="640.1" r="4.5" fill="#00a896" opacity="0.82"/>
<circle cx="592.1" cy="631.2" r="4.5" fill="#00a896" opacity="0.82"/>
<circle cx="629.6" cy="595.5" r="4.5" fill="#00a896" opacity="0.82"/>
<circle cx="620.2" cy="584.2" r="4.5" fill="#00a896" opacity="0.82"/>
<circle cx="788.8" cy="686.0" r="4.5" fill="#00a896" opacity="0.82"/>
<circle cx="638.9" cy="622.8" r="4.5" fill="#00a896" opacity="0.82"/>
<circle cx="901.3" cy="617.2" r="4.5" fill="#00a896" opacity="0.82"/>
<circle cx="891.9" cy="598.8" r="4.5" fill="#00a896" opacity="0.82"/>
<circle cx="648.3" cy="660.7" r="4.5" fill="#00a896" opacity="0.82"/>
<circle cx="920.0" cy="625.0" r="4.5" fill="#00a896" opacity="0.82"/>
<circle cx="779.5" cy="644.8" r="4.5" fill="#00a896" opacity="0.82"/>
<circle cx="920.0" cy="589.5" r="4.5" fill="#00a896" opacity="0.82"/>
<circle cx="816.9" cy="580.6" r="4.5" fill="#00a896" opacity="0.82"/>
<circle cx="592.1" cy="645.0" r="4.5" fill="#00a896" opacity="0.82"/>
<circle cx="648.3" cy="643.7" r="4.5" fill="#00a896" opacity="0.82"/>
<circle cx="667.1" cy="624.1" r="4.5" fill="#00a896" opacity="0.82"/>
<circle cx="751.4" cy="650.3" r="4.5" fill="#00a896" opacity="0.82"/>
<circle cx="564.0" cy="604.4" r="4.5" fill="#00a896" opacity="0.82"/>
<circle cx="573.4" cy="624.6" r="4.5" fill="#00a896" opacity="0.82"/>
<circle cx="582.7" cy="625.2" r="4.5" fill="#00a896" opacity="0.82"/>
<circle cx="751.4" cy="600.6" r="4.5" fill="#00a896" opacity="0.82"/>
<circle cx="751.4" cy="672.9" r="4.5" fill="#00a896" opacity="0.82"/>
<circle cx="788.8" cy="644.5" r="4.5" fill="#00a896" opacity="0.82"/>
<circle cx="676.4" cy="569.3" r="4.5" fill="#00a896" opacity="0.82"/>
<circle cx="788.8" cy="640.8" r="4.5" fill="#00a896" opacity="0.82"/>
<circle cx="638.9" cy="577.3" r="4.5" fill="#00a896" opacity="0.82"/>
<circle cx="760.7" cy="674.9" r="4.5" fill="#00a896" opacity="0.82"/>
<circle cx="592.1" cy="573.3" r="4.5" fill="#00a896" opacity="0.82"/>
<circle cx="798.2" cy="593.7" r="4.5" fill="#00a896" opacity="0.82"/>
<circle cx="873.2" cy="696.7" r="4.5" fill="#00a896" opacity="0.82"/>
<circle cx="657.7" cy="619.2" r="4.5" fill="#00a896" opacity="0.82"/>
<circle cx="751.4" cy="576.6" r="4.5" fill="#00a896" opacity="0.82"/>
<text x="564.0" y="748.0" font-size="11" font-weight="normal" text-anchor="start" fill="#666" font-family="Segoe UI, Arial, sans-serif">min 1</text>
<text x="920.0" y="748.0" font-size="11" font-weight="normal" text-anchor="end" fill="#666" font-family="Segoe UI, Arial, sans-serif">max 20</text>
<rect x="70" y="774" width="420" height="210" fill="#ffffff" stroke="#d9d9d9" rx="8"/>
<text x="82.0" y="796.0" font-size="14" font-weight="bold" text-anchor="start" fill="#222" font-family="Segoe UI, Arial, sans-serif">lambda_edge</text>
<line x1="110" y1="964.0" x2="476" y2="964.0" stroke="#f1f1f1"/>
<line x1="110" y1="912.0" x2="476" y2="912.0" stroke="#f1f1f1"/>
<line x1="110" y1="860.0" x2="476" y2="860.0" stroke="#f1f1f1"/>
<line x1="110" y1="808.0" x2="476" y2="808.0" stroke="#f1f1f1"/>
<circle cx="195.1" cy="912.3" r="4.5" fill="#ff595e" opacity="0.82"/>
<circle cx="135.8" cy="895.9" r="4.5" fill="#ff595e" opacity="0.82"/>
<circle cx="116.0" cy="852.6" r="4.5" fill="#ff595e" opacity="0.82"/>
<circle cx="313.8" cy="907.9" r="4.5" fill="#ff595e" opacity="0.82"/>
<circle cx="214.9" cy="864.6" r="4.5" fill="#ff595e" opacity="0.82"/>
<circle cx="135.8" cy="847.3" r="4.5" fill="#ff595e" opacity="0.82"/>
<circle cx="294.0" cy="873.0" r="4.5" fill="#ff595e" opacity="0.82"/>
<circle cx="333.6" cy="948.0" r="4.5" fill="#ff595e" opacity="0.82"/>
<circle cx="175.3" cy="894.1" r="4.5" fill="#ff595e" opacity="0.82"/>
<circle cx="195.1" cy="885.2" r="4.5" fill="#ff595e" opacity="0.82"/>
<circle cx="195.1" cy="849.5" r="4.5" fill="#ff595e" opacity="0.82"/>
<circle cx="373.1" cy="838.2" r="4.5" fill="#ff595e" opacity="0.82"/>
<circle cx="313.8" cy="940.0" r="4.5" fill="#ff595e" opacity="0.82"/>
<circle cx="116.0" cy="876.8" r="4.5" fill="#ff595e" opacity="0.82"/>
<circle cx="432.4" cy="871.2" r="4.5" fill="#ff595e" opacity="0.82"/>
<circle cx="274.2" cy="852.8" r="4.5" fill="#ff595e" opacity="0.82"/>
<circle cx="313.8" cy="914.7" r="4.5" fill="#ff595e" opacity="0.82"/>
<circle cx="294.0" cy="879.0" r="4.5" fill="#ff595e" opacity="0.82"/>
<circle cx="392.9" cy="898.8" r="4.5" fill="#ff595e" opacity="0.82"/>
<circle cx="294.0" cy="843.5" r="4.5" fill="#ff595e" opacity="0.82"/>
<circle cx="353.3" cy="834.6" r="4.5" fill="#ff595e" opacity="0.82"/>
<circle cx="254.4" cy="899.0" r="4.5" fill="#ff595e" opacity="0.82"/>
<circle cx="294.0" cy="897.7" r="4.5" fill="#ff595e" opacity="0.82"/>
<circle cx="333.6" cy="878.1" r="4.5" fill="#ff595e" opacity="0.82"/>
<circle cx="392.9" cy="904.3" r="4.5" fill="#ff595e" opacity="0.82"/>
<circle cx="452.2" cy="858.4" r="4.5" fill="#ff595e" opacity="0.82"/>
<circle cx="432.4" cy="878.6" r="4.5" fill="#ff595e" opacity="0.82"/>
<circle cx="373.1" cy="879.2" r="4.5" fill="#ff595e" opacity="0.82"/>
<circle cx="195.1" cy="854.6" r="4.5" fill="#ff595e" opacity="0.82"/>
<circle cx="373.1" cy="926.9" r="4.5" fill="#ff595e" opacity="0.82"/>
<circle cx="254.4" cy="898.5" r="4.5" fill="#ff595e" opacity="0.82"/>
<circle cx="313.8" cy="823.3" r="4.5" fill="#ff595e" opacity="0.82"/>
<circle cx="175.3" cy="894.8" r="4.5" fill="#ff595e" opacity="0.82"/>
<circle cx="353.3" cy="831.3" r="4.5" fill="#ff595e" opacity="0.82"/>
<circle cx="274.2" cy="928.9" r="4.5" fill="#ff595e" opacity="0.82"/>
<circle cx="254.4" cy="827.3" r="4.5" fill="#ff595e" opacity="0.82"/>
<circle cx="472.0" cy="847.7" r="4.5" fill="#ff595e" opacity="0.82"/>
<circle cx="195.1" cy="950.7" r="4.5" fill="#ff595e" opacity="0.82"/>
<circle cx="195.1" cy="873.2" r="4.5" fill="#ff595e" opacity="0.82"/>
<circle cx="116.0" cy="830.6" r="4.5" fill="#ff595e" opacity="0.82"/>
<text x="116.0" y="1002.0" font-size="11" font-weight="normal" text-anchor="start" fill="#666" font-family="Segoe UI, Arial, sans-serif">min 1</text>
<text x="472.0" y="1002.0" font-size="11" font-weight="normal" text-anchor="end" fill="#666" font-family="Segoe UI, Arial, sans-serif">max 10</text>
<rect x="518" y="774" width="420" height="210" fill="#ffffff" stroke="#d9d9d9" rx="8"/>
<text x="530.0" y="796.0" font-size="14" font-weight="bold" text-anchor="start" fill="#222" font-family="Segoe UI, Arial, sans-serif">edge_sobel_thr_ratio</text>
<line x1="558" y1="964.0" x2="924" y2="964.0" stroke="#f1f1f1"/>
<line x1="558" y1="912.0" x2="924" y2="912.0" stroke="#f1f1f1"/>
<line x1="558" y1="860.0" x2="924" y2="860.0" stroke="#f1f1f1"/>
<line x1="558" y1="808.0" x2="924" y2="808.0" stroke="#f1f1f1"/>
<circle cx="635.2" cy="912.3" r="4.5" fill="#8ac926" opacity="0.82"/>
<circle cx="706.4" cy="895.9" r="4.5" fill="#8ac926" opacity="0.82"/>
<circle cx="635.2" cy="852.6" r="4.5" fill="#8ac926" opacity="0.82"/>
<circle cx="848.8" cy="907.9" r="4.5" fill="#8ac926" opacity="0.82"/>
<circle cx="635.2" cy="864.6" r="4.5" fill="#8ac926" opacity="0.82"/>
<circle cx="848.8" cy="847.3" r="4.5" fill="#8ac926" opacity="0.82"/>
<circle cx="920.0" cy="873.0" r="4.5" fill="#8ac926" opacity="0.82"/>
<circle cx="848.8" cy="948.0" r="4.5" fill="#8ac926" opacity="0.82"/>
<circle cx="635.2" cy="894.1" r="4.5" fill="#8ac926" opacity="0.82"/>
<circle cx="777.6" cy="885.2" r="4.5" fill="#8ac926" opacity="0.82"/>
<circle cx="920.0" cy="849.5" r="4.5" fill="#8ac926" opacity="0.82"/>
<circle cx="635.2" cy="838.2" r="4.5" fill="#8ac926" opacity="0.82"/>
<circle cx="777.6" cy="940.0" r="4.5" fill="#8ac926" opacity="0.82"/>
<circle cx="706.4" cy="876.8" r="4.5" fill="#8ac926" opacity="0.82"/>
<circle cx="706.4" cy="871.2" r="4.5" fill="#8ac926" opacity="0.82"/>
<circle cx="635.2" cy="852.8" r="4.5" fill="#8ac926" opacity="0.82"/>
<circle cx="848.8" cy="914.7" r="4.5" fill="#8ac926" opacity="0.82"/>
<circle cx="564.0" cy="879.0" r="4.5" fill="#8ac926" opacity="0.82"/>
<circle cx="706.4" cy="898.8" r="4.5" fill="#8ac926" opacity="0.82"/>
<circle cx="920.0" cy="843.5" r="4.5" fill="#8ac926" opacity="0.82"/>
<circle cx="777.6" cy="834.6" r="4.5" fill="#8ac926" opacity="0.82"/>
<circle cx="706.4" cy="899.0" r="4.5" fill="#8ac926" opacity="0.82"/>
<circle cx="635.2" cy="897.7" r="4.5" fill="#8ac926" opacity="0.82"/>
<circle cx="777.6" cy="878.1" r="4.5" fill="#8ac926" opacity="0.82"/>
<circle cx="777.6" cy="904.3" r="4.5" fill="#8ac926" opacity="0.82"/>
<circle cx="848.8" cy="858.4" r="4.5" fill="#8ac926" opacity="0.82"/>
<circle cx="920.0" cy="878.6" r="4.5" fill="#8ac926" opacity="0.82"/>
<circle cx="848.8" cy="879.2" r="4.5" fill="#8ac926" opacity="0.82"/>
<circle cx="848.8" cy="854.6" r="4.5" fill="#8ac926" opacity="0.82"/>
<circle cx="635.2" cy="926.9" r="4.5" fill="#8ac926" opacity="0.82"/>
<circle cx="777.6" cy="898.5" r="4.5" fill="#8ac926" opacity="0.82"/>
<circle cx="635.2" cy="823.3" r="4.5" fill="#8ac926" opacity="0.82"/>
<circle cx="920.0" cy="894.8" r="4.5" fill="#8ac926" opacity="0.82"/>
<circle cx="635.2" cy="831.3" r="4.5" fill="#8ac926" opacity="0.82"/>
<circle cx="848.8" cy="928.9" r="4.5" fill="#8ac926" opacity="0.82"/>
<circle cx="706.4" cy="827.3" r="4.5" fill="#8ac926" opacity="0.82"/>
<circle cx="564.0" cy="847.7" r="4.5" fill="#8ac926" opacity="0.82"/>
<circle cx="635.2" cy="950.7" r="4.5" fill="#8ac926" opacity="0.82"/>
<circle cx="920.0" cy="873.2" r="4.5" fill="#8ac926" opacity="0.82"/>
<circle cx="920.0" cy="830.6" r="4.5" fill="#8ac926" opacity="0.82"/>
<text x="564.0" y="1002.0" font-size="11" font-weight="normal" text-anchor="start" fill="#666" font-family="Segoe UI, Arial, sans-serif">min 0.1</text>
<text x="920.0" y="1002.0" font-size="11" font-weight="normal" text-anchor="end" fill="#666" font-family="Segoe UI, Arial, sans-serif">max 0.35</text>
<rect x="490.0" y="1028" width="420" height="210" fill="#ffffff" stroke="#d9d9d9" rx="8"/>
<text x="502.0" y="1050.0" font-size="14" font-weight="bold" text-anchor="start" fill="#222" font-family="Segoe UI, Arial, sans-serif">edge_sobel_thr_abs</text>
<line x1="530.0" y1="1218.0" x2="896.0" y2="1218.0" stroke="#f1f1f1"/>
<line x1="530.0" y1="1166.0" x2="896.0" y2="1166.0" stroke="#f1f1f1"/>
<line x1="530.0" y1="1114.0" x2="896.0" y2="1114.0" stroke="#f1f1f1"/>
<line x1="530.0" y1="1062.0" x2="896.0" y2="1062.0" stroke="#f1f1f1"/>
<circle cx="773.3" cy="1166.3" r="4.5" fill="#6a4c93" opacity="0.82"/>
<circle cx="536.0" cy="1149.9" r="4.5" fill="#6a4c93" opacity="0.82"/>
<circle cx="773.3" cy="1106.6" r="4.5" fill="#6a4c93" opacity="0.82"/>
<circle cx="536.0" cy="1161.9" r="4.5" fill="#6a4c93" opacity="0.82"/>
<circle cx="892.0" cy="1118.6" r="4.5" fill="#6a4c93" opacity="0.82"/>
<circle cx="773.3" cy="1101.3" r="4.5" fill="#6a4c93" opacity="0.82"/>
<circle cx="654.7" cy="1127.0" r="4.5" fill="#6a4c93" opacity="0.82"/>
<circle cx="773.3" cy="1202.0" r="4.5" fill="#6a4c93" opacity="0.82"/>
<circle cx="536.0" cy="1148.1" r="4.5" fill="#6a4c93" opacity="0.82"/>
<circle cx="654.7" cy="1139.2" r="4.5" fill="#6a4c93" opacity="0.82"/>
<circle cx="773.3" cy="1103.5" r="4.5" fill="#6a4c93" opacity="0.82"/>
<circle cx="654.7" cy="1092.2" r="4.5" fill="#6a4c93" opacity="0.82"/>
<circle cx="892.0" cy="1194.0" r="4.5" fill="#6a4c93" opacity="0.82"/>
<circle cx="654.7" cy="1130.8" r="4.5" fill="#6a4c93" opacity="0.82"/>
<circle cx="773.3" cy="1125.2" r="4.5" fill="#6a4c93" opacity="0.82"/>
<circle cx="654.7" cy="1106.8" r="4.5" fill="#6a4c93" opacity="0.82"/>
<circle cx="654.7" cy="1168.7" r="4.5" fill="#6a4c93" opacity="0.82"/>
<circle cx="536.0" cy="1133.0" r="4.5" fill="#6a4c93" opacity="0.82"/>
<circle cx="536.0" cy="1152.8" r="4.5" fill="#6a4c93" opacity="0.82"/>
<circle cx="892.0" cy="1097.5" r="4.5" fill="#6a4c93" opacity="0.82"/>
<circle cx="654.7" cy="1088.6" r="4.5" fill="#6a4c93" opacity="0.82"/>
<circle cx="892.0" cy="1153.0" r="4.5" fill="#6a4c93" opacity="0.82"/>
<circle cx="892.0" cy="1151.7" r="4.5" fill="#6a4c93" opacity="0.82"/>
<circle cx="536.0" cy="1132.1" r="4.5" fill="#6a4c93" opacity="0.82"/>
<circle cx="536.0" cy="1158.3" r="4.5" fill="#6a4c93" opacity="0.82"/>
<circle cx="773.3" cy="1112.4" r="4.5" fill="#6a4c93" opacity="0.82"/>
<circle cx="536.0" cy="1132.6" r="4.5" fill="#6a4c93" opacity="0.82"/>
<circle cx="536.0" cy="1133.2" r="4.5" fill="#6a4c93" opacity="0.82"/>
<circle cx="654.7" cy="1108.6" r="4.5" fill="#6a4c93" opacity="0.82"/>
<circle cx="654.7" cy="1180.9" r="4.5" fill="#6a4c93" opacity="0.82"/>
<circle cx="536.0" cy="1152.5" r="4.5" fill="#6a4c93" opacity="0.82"/>
<circle cx="654.7" cy="1077.3" r="4.5" fill="#6a4c93" opacity="0.82"/>
<circle cx="892.0" cy="1148.8" r="4.5" fill="#6a4c93" opacity="0.82"/>
<circle cx="536.0" cy="1085.3" r="4.5" fill="#6a4c93" opacity="0.82"/>
<circle cx="773.3" cy="1182.9" r="4.5" fill="#6a4c93" opacity="0.82"/>
<circle cx="654.7" cy="1081.3" r="4.5" fill="#6a4c93" opacity="0.82"/>
<circle cx="654.7" cy="1101.7" r="4.5" fill="#6a4c93" opacity="0.82"/>
<circle cx="654.7" cy="1204.7" r="4.5" fill="#6a4c93" opacity="0.82"/>
<circle cx="654.7" cy="1127.2" r="4.5" fill="#6a4c93" opacity="0.82"/>
<circle cx="892.0" cy="1084.6" r="4.5" fill="#6a4c93" opacity="0.82"/>
<text x="536.0" y="1256.0" font-size="11" font-weight="normal" text-anchor="start" fill="#666" font-family="Segoe UI, Arial, sans-serif">min 0</text>
<text x="892.0" y="1256.0" font-size="11" font-weight="normal" text-anchor="end" fill="#666" font-family="Segoe UI, Arial, sans-serif">max 0.03</text>
</svg>